<?xml version="1.0" encoding="UTF-8"?>
<svg version="1.1" xmlns="http://www.w3.org/2000/svg" width="500" height="500">
<path d="M0 0 C7.64462183 2.9664359 10.22251256 8.64695047 14 15.625 C14.97782927 17.37610823 15.95568778 19.1272009 16.93528748 20.87731934 C17.95063925 22.69622756 18.95835027 24.51922047 19.96533203 26.34277344 C23.20649053 32.19276412 26.58097235 37.96569674 29.9375 43.75 C33.72252093 50.30444273 37.50056867 56.86263162 41.25 63.4375 C47.81184942 74.94185831 54.47183753 86.38949722 61.15454102 97.82397461 C66.71072291 107.33179402 72.2259632 116.86067118 77.67822266 126.4284668 C81.30827115 132.7970258 84.96800635 139.14766475 88.64746094 145.48779297 C91.30877705 150.07473844 93.96016569 154.66717432 96.6015625 159.265625 C102.99222987 170.3845337 109.43882611 181.45882256 116.07177734 192.43505859 C118.9779629 197.2568427 121.75762341 202.11916587 124.41015625 207.0859375 C129.49507545 216.40620709 134.96077258 225.52652166 140.33203125 234.68359375 C147.08385933 246.2042823 153.72969221 257.7735665 160.20629883 269.45166016 C163.26050835 274.94805332 166.39519072 280.37860042 169.65136719 285.7578125 C171.44879627 288.74615224 173.16305558 291.77434971 174.875 294.8125 C178.18866328 300.67825114 181.70331827 306.38924606 185.3359375 312.0625 C188.50006531 317.64800261 189.57508148 321.69967408 188 328 C185.82977885 331.96626624 184.24462407 334.40090625 180 336 C177.15689528 336.25299966 177.15689528 336.25299966 173.79299355 336.25726891 C171.86898828 336.26694224 171.86898828 336.26694224 169.90611422 336.276811 C168.47961489 336.27386862 167.05311596 336.27073317 165.62661743 336.26742554 C164.11363732 336.27116093 162.60065914 336.275762 161.08768404 336.28115618 C156.92390547 336.29341529 152.76020707 336.2931223 148.59641457 336.29076743 C144.10824463 336.29036 139.62010065 336.30139132 135.13194275 336.31088257 C126.33661278 336.32750928 117.54130962 336.33299286 108.74596526 336.33410732 C101.59841483 336.33505697 94.45087327 336.33916307 87.30332565 336.34550858 C67.04847481 336.36312522 46.79364517 336.37234674 26.53878661 336.37084763 C24.90020247 336.37072776 24.90020247 336.37072776 23.22851562 336.37060547 C22.13479587 336.37052371 21.04107612 336.37044195 19.91421334 336.37035771 C2.18403574 336.36954459 -15.54605696 336.38868754 -33.27621 336.4168822 C-51.47183134 336.44558927 -69.66741125 336.45942371 -87.86305583 336.45769465 C-98.08239935 336.45703001 -108.30165386 336.4625545 -118.52097702 336.48405075 C-127.22114353 336.50223388 -135.92118066 336.50663351 -144.6213579 336.4930319 C-149.06160386 336.48648783 -153.50160141 336.48643674 -157.94182396 336.5037384 C-162.00565964 336.51941082 -166.06904874 336.51666566 -170.13287313 336.49917014 C-171.60391581 336.49608733 -173.07499133 336.49978068 -174.54599528 336.51089029 C-176.54438902 336.52498477 -178.54291878 336.5120497 -180.54131126 336.49777794 C-181.65172354 336.49821267 -182.76213582 336.49864741 -183.90619695 336.49909532 C-187.78047788 335.87409255 -189.94423411 334.421395 -193 332 C-196.18924104 327.21613845 -195.83917877 322.5856577 -195 317 C-193.12507021 312.33342991 -190.60581361 308.19020341 -187.9375 303.9375 C-187.28072266 302.84373047 -186.62394531 301.74996094 -185.94726562 300.62304688 C-182.8057613 295.42022049 -179.55007696 290.29717028 -176.25390625 285.19140625 C-173.90422411 281.52096171 -171.82626509 277.84512672 -169.94433594 273.91796875 C-168.18515085 270.345022 -166.136218 266.93530564 -164.125 263.5 C-163.41706299 262.28328613 -163.41706299 262.28328613 -162.69482422 261.04199219 C-160.01248468 256.43500669 -157.31820669 251.83501297 -154.625 247.234375 C-153.45808265 245.23972997 -152.29141955 243.24493618 -151.125 241.25 C-150.24303955 239.74167603 -150.24303955 239.74167603 -149.34326172 238.20288086 C-145.25208509 231.18935543 -141.23187725 224.13857487 -137.25 217.0625 C-132.80214808 209.1589634 -128.28037571 201.30770516 -123.66015625 193.50390625 C-119.80260698 186.98659235 -116.00152725 180.43620254 -112.18969727 173.89208984 C-109.06368635 168.52844564 -105.92575836 163.17236417 -102.76586914 157.82861328 C-99.28770985 151.9455936 -95.89966474 146.0383395 -92.66015625 140.01953125 C-87.46590971 130.57211343 -81.93447009 121.30579683 -76.4921875 112 C-75.28637235 109.93755027 -74.08064361 107.87505001 -72.875 105.8125 C-72.27800293 104.7915625 -71.68100586 103.770625 -71.06591797 102.71875 C-67.32785525 96.31359036 -63.66292704 89.87322741 -60.05688477 83.39306641 C-57.1351934 78.17129088 -54.00568076 73.10131469 -50.83984375 68.0234375 C-48.56703886 64.28850972 -46.493002 60.4666605 -44.4296875 56.61328125 C-43.01716742 54.0313798 -41.5285921 51.51465281 -40 49 C-38.01847731 45.73827053 -36.12873766 42.44836001 -34.31640625 39.08984375 C-30.92124953 32.8414556 -27.48128079 26.6198723 -23.98608398 20.42700195 C-23.28123958 19.1737082 -22.58045145 17.91812538 -21.88354492 16.66040039 C-20.85798083 14.81085435 -19.81915002 12.96934108 -18.77734375 11.12890625 C-18.17140381 10.04681885 -17.56546387 8.96473145 -16.94116211 7.84985352 C-12.71523981 1.64570422 -7.53005493 -1.35665453 0 0 Z M-4 41 C-13.63318471 55.34674835 -21.76521287 70.82385844 -30.31640625 85.82592773 C-34.0865358 92.4290644 -37.90943017 99.00013032 -41.75 105.5625 C-46.94961132 114.44897659 -52.08714683 123.36885924 -57.1875 132.3125 C-64.47061869 145.08197058 -71.80011781 157.82270214 -79.22265625 170.51171875 C-80.37770022 172.486923 -81.53264587 174.46218475 -82.6875 176.4375 C-83.26725586 177.42886963 -83.84701172 178.42023926 -84.44433594 179.44165039 C-87.71389369 185.04412748 -90.95725643 190.6605335 -94.16796875 196.296875 C-94.51907211 196.91301163 -94.87017548 197.52914825 -95.23191833 198.16395569 C-96.93123639 201.14757466 -98.62724797 204.13298074 -100.3190918 207.12084961 C-103.48574675 212.69202098 -106.7182268 218.20180873 -110.1015625 223.64453125 C-113.06101045 228.41519862 -115.8272363 233.24373684 -118.48046875 238.18994141 C-121.39257439 243.57527815 -124.45783786 248.87491522 -127.5 254.1875 C-127.84427032 254.78961304 -128.18854065 255.39172607 -128.54324341 256.01208496 C-133.46393793 264.61732883 -138.43121071 273.19419781 -143.4375 281.75 C-147.45837871 288.62254164 -151.4606321 295.50361262 -155.375 302.4375 C-155.93852173 303.43185059 -155.93852173 303.43185059 -156.51342773 304.44628906 C-158.25050169 307.07020617 -158.25050169 307.07020617 -159 310 C-56.37 310 46.26 310 152 310 C132.21066566 273.53348466 132.21066566 273.53348466 110.80859375 238.00390625 C108.6408422 234.40347226 106.65910669 230.71699513 104.6574707 227.0222168 C101.81568846 221.84053726 98.84015122 216.73675692 95.875 211.625 C94.54390861 209.32442711 93.21310341 207.02369179 91.8828125 204.72265625 C91.22700195 203.58844238 90.57119141 202.45422852 89.89550781 201.28564453 C87.16530323 196.55314927 84.45604804 191.80883659 81.75 187.0625 C75.06789863 175.35102739 68.35232775 163.65866473 61.48901367 152.05224609 C55.88392307 142.57279219 50.42084065 133.01373845 44.96533203 123.44775391 C39.7725705 114.34344468 34.54050733 105.26272596 29.27685547 96.19921875 C27.09833271 92.44699447 24.92419099 88.69223538 22.75 84.9375 C22.31051025 84.17904785 21.87102051 83.4205957 21.41821289 82.63916016 C18.65361232 77.86558715 15.89825085 73.08679533 13.1484375 68.3046875 C12.139281 66.55098942 11.13001742 64.79735301 10.12072754 63.04373169 C9.15069169 61.35716912 8.18225749 59.66968568 7.21386719 57.98217773 C2.27036213 49.39144121 2.27036213 49.39144121 -3 41 C-3.33 41 -3.66 41 -4 41 Z " fill="#FC6D6D" transform="translate(254,82)"/>
<path d="M0 0 C11.03898491 -0.39492298 22.07627666 -0.69643558 33.12090111 -0.88080692 C38.2506285 -0.96933251 43.37550648 -1.08921209 48.50244141 -1.2824707 C53.45663023 -1.4680359 58.40617835 -1.56898093 63.36357498 -1.61291313 C65.2484107 -1.64418611 67.13300782 -1.70527655 69.01585007 -1.79741096 C80.99796499 -2.36009286 80.99796499 -2.36009286 86 0 C90.37721923 4.11158748 92.81288912 9.50180374 95.12120438 14.95897102 C96.30222893 17.70193568 97.74373715 20.27305957 99.21875 22.8671875 C99.67894531 23.72280273 100.13914062 24.57841797 100.61328125 25.45996094 C103.13413146 30.07737742 105.82922881 34.59324522 108.5 39.125 C114.02726385 48.54727601 119.40875025 58.04146867 124.71728516 67.58837891 C129.60158993 76.34810832 134.63676068 85.01336132 139.734375 93.65039062 C140.29382813 94.60107422 140.85328125 95.55175781 141.4296875 96.53125 C141.92710449 97.37236328 142.42452148 98.21347656 142.93701172 99.08007812 C144 101 144 101 144 102 C77.67 102 11.34 102 -57 102 C-55.57430231 97.72290694 -54.38334458 94.59847018 -52.234375 90.7890625 C-51.40413818 89.31046753 -51.40413818 89.31046753 -50.55712891 87.80200195 C-49.96077637 86.75359131 -49.36442383 85.70518066 -48.75 84.625 C-48.1317334 83.52953857 -47.5134668 82.43407715 -46.87646484 81.30541992 C-41.38139348 71.59977618 -35.76806272 61.96388177 -30.125 52.34375 C-27.58982696 48.01939982 -25.09311668 43.67537662 -22.625 39.3125 C-20.14020009 34.93224375 -17.54897854 30.64230785 -14.875 26.375 C-11.17740266 20.43399874 -8.00440336 14.31607524 -5 8 C-4.34 8 -3.68 8 -3 8 C-2.814375 7.13375 -2.814375 7.13375 -2.625 6.25 C-1.99274387 3.97387794 -1.08136532 2.09239794 0 0 Z " fill="#FD6D6D" transform="translate(207,262)"/>
<path d="M0 0 C3.00403793 0.16341966 4.49771431 0.46932961 6.58984375 2.6796875 C7.03457031 3.40414062 7.47929687 4.12859375 7.9375 4.875 C8.44667969 5.69742188 8.95585937 6.51984375 9.48046875 7.3671875 C11.47204004 10.81787915 13.37943009 14.30686147 15.2578125 17.8203125 C17.3030659 21.55312924 19.45493952 25.21379251 21.625 28.875 C26.10284296 36.43281342 30.4741995 44.04776573 34.80126953 51.69287109 C37.43136234 56.32301409 40.13319911 60.86721302 43.05737305 65.31860352 C44.38458436 67.68599649 44.62020291 69.36413762 44 72 C40.40000803 74.39999465 37.81097983 74.28272746 33.65454102 74.25878906 C32.53698425 74.26404602 32.53698425 74.26404602 31.39685059 74.26940918 C28.93244119 74.27821613 26.4683186 74.27238048 24.00390625 74.265625 C22.29141688 74.26697209 20.57892788 74.268913 18.86643982 74.27142334 C15.27607586 74.27437331 11.68581138 74.27008157 8.09545898 74.26074219 C3.49414161 74.24935631 -1.10694223 74.2559024 -5.708251 74.26788712 C-9.24528256 74.27511648 -12.78225883 74.27281269 -16.31929207 74.26763153 C-18.01575816 74.26629757 -19.71222927 74.2679339 -21.4086895 74.27259064 C-23.78097691 74.27767259 -26.15288714 74.26992192 -28.52514648 74.25878906 C-29.22605911 74.26283752 -29.92697174 74.26688599 -30.64912415 74.27105713 C-34.26757413 74.23961627 -36.92041848 73.97659746 -40 72 C-39.79783181 67.35013166 -38.83870619 64.41188855 -36.36328125 60.45703125 C-34.11368459 56.80712085 -31.89685085 53.1460481 -29.73828125 49.44140625 C-29.18205078 48.48766113 -28.62582031 47.53391602 -28.05273438 46.55126953 C-27.47845703 45.56497559 -26.90417969 44.57868164 -26.3125 43.5625 C-25.70599609 42.52206543 -25.09949219 41.48163086 -24.47460938 40.40966797 C-20.63673703 33.8222601 -16.81446343 27.22598163 -13 20.625 C-2.53350197 2.53350197 -2.53350197 2.53350197 0 0 Z " fill="#FC6D6D" transform="translate(248,168)"/>
<path d="M0 0 C0.66 0 1.32 0 2 0 C3.62600413 2.53638528 5.02729536 5.16535208 6.46484375 7.8125 C6.97144531 8.534375 7.47804688 9.25625 8 10 C8.99 10 9.98 10 11 10 C13.85291547 12.85291547 13 15.08693433 13 19 C13.66 19.66 14.32 20.32 15 21 C15.39764263 22.98821313 15.73775349 24.98944339 16 27 C16.66 27 17.32 27 18 27 C18.66 29.31 19.32 31.62 20 34 C16.77393737 31.21432052 14.82104756 27.62897414 12.6875 24 C12.29232178 23.33371582 11.89714355 22.66743164 11.48999023 21.98095703 C2.72581585 7.12515585 2.72581585 7.12515585 0 0 Z " fill="#EC7173" transform="translate(361,313)"/>
<path d="M0 0 C1.35717167 4.071515 0.48923319 6.00614737 -1 10 C-1.845625 10.99 -2.69125 11.98 -3.5625 13 C-6.36331011 16.4471509 -6.73790451 18.63174178 -7 23 C-7.66 23 -8.32 23 -9 23 C-9.33 24.32 -9.66 25.64 -10 27 C-11.65 27.33 -13.3 27.66 -15 28 C-13.60582632 24.29102741 -11.92181521 20.92161688 -9.9609375 17.48046875 C-9.09082031 15.9480957 -9.09082031 15.9480957 -8.203125 14.38476562 C-7.59984375 13.32966797 -6.9965625 12.27457031 -6.375 11.1875 C-5.76398438 10.11306641 -5.15296875 9.03863281 -4.5234375 7.93164062 C-3.01844115 5.28613924 -1.51054209 2.6423375 0 0 Z " fill="#EC7174" transform="translate(182,186)"/>
<path d="M0 0 C0.12375 0.639375 0.2475 1.27875 0.375 1.9375 C0.58125 2.618125 0.7875 3.29875 1 4 C1.66 4.33 2.32 4.66 3 5 C3 6.65 3 8.3 3 10 C2.34 9.34 1.68 8.68 1 8 C-4.49090543 10.99503933 -6.78198681 14.17629358 -9 20 C-9.3571341 21.3271564 -9.69773968 22.65928094 -10 24 C-10.99 24 -11.98 24 -13 24 C-9.75498194 15.46452595 -4.91595416 7.66310501 0 0 Z " fill="#F56E6D" transform="translate(83,358)"/>
<path d="M0 0 C0.66 0 1.32 0 2 0 C2 0.66 2 1.32 2 2 C2.66 2 3.32 2 4 2 C9 12 9 12 10 14.0703125 C11.46796477 16.90302577 13.23384734 19.52583553 14.9765625 22.1953125 C16 24 16 24 16 26 C17.32 26.66 18.64 27.32 20 28 C19.67 29.65 19.34 31.3 19 33 C16.50880175 29.83107027 14.47689868 26.51576555 12.4609375 23.02734375 C12.13461334 22.46302139 11.80828918 21.89869904 11.47207642 21.317276 C10.78674352 20.13046925 10.10271359 18.94290923 9.41992188 17.75463867 C8.37506698 15.93761649 7.32453651 14.12396256 6.2734375 12.31054688 C5.60642779 11.15384358 4.93974961 9.99694903 4.2734375 8.83984375 C3.36730713 7.26771118 3.36730713 7.26771118 2.44287109 5.66381836 C1 3 1 3 0 0 Z " fill="#E37677" transform="translate(291,192)"/>
<path d="M0 0 C3.99592433 4.61068191 6.94134544 9.74958228 10 15 C10.42023438 15.70382812 10.84046875 16.40765625 11.2734375 17.1328125 C14 21.75443262 14 21.75443262 14 24 C12.125 23.8125 12.125 23.8125 10 23 C8.9375 20.625 8.9375 20.625 8 18 C7.505 17.525625 7.01 17.05125 6.5 16.5625 C4.3837925 14.35811719 3.94063433 11.88069263 3 9 C2.46375 8.319375 1.9275 7.63875 1.375 6.9375 C-0.36073958 4.49168514 -0.24444395 2.93332739 0 0 Z " fill="#EC7072" transform="translate(417,358)"/>
<path d="M0 0 C0.66 0 1.32 0 2 0 C2 0.66 2 1.32 2 2 C2.99 2 3.98 2 5 2 C5 2.99 5 3.98 5 5 C5.66 5 6.32 5 7 5 C7 6.65 7 8.3 7 10 C7.99 10.33 8.98 10.66 10 11 C10 11.99 10 12.98 10 14 C10.7425 14.680625 10.7425 14.680625 11.5 15.375 C13 17 13 17 13.1875 19.6875 C13.125625 20.450625 13.06375 21.21375 13 22 C10.99093921 19.3928525 9.18908706 16.76152429 7.51953125 13.92578125 C7.07802734 13.17619141 6.63652344 12.42660156 6.18164062 11.65429688 C5.72982422 10.88150391 5.27800781 10.10871094 4.8125 9.3125 C4.34908203 8.52810547 3.88566406 7.74371094 3.40820312 6.93554688 C0 1.12804906 0 1.12804906 0 0 Z " fill="#E47376" transform="translate(260,139)"/>
<path d="M0 0 C1.98 0 3.96 0 6 0 C4.56032356 5.23518706 2.18303389 9.63026009 -1 14 C-1.33 14 -1.66 14 -2 14 C-2.33 12.02 -2.66 10.04 -3 8 C-1.68 7.67 -0.36 7.34 1 7 C1 6.01 1 5.02 1 4 C0.34 3.67 -0.32 3.34 -1 3 C-0.67 2.01 -0.34 1.02 0 0 Z " fill="#F07173" transform="translate(212,177)"/>
<path d="M0 0 C2.4375 0.9375 2.4375 0.9375 3.75 3 C4.0903125 3.9590625 4.0903125 3.9590625 4.4375 4.9375 C2.7875 5.5975 1.1375 6.2575 -0.5625 6.9375 C-0.8925 6.2775 -1.2225 5.6175 -1.5625 4.9375 C-2.5525 4.6075 -3.5425 4.2775 -4.5625 3.9375 C-4.5625 5.2575 -4.5625 6.5775 -4.5625 7.9375 C-5.5525 8.2675 -6.5425 8.5975 -7.5625 8.9375 C-4.94570775 -0.12062702 -4.94570775 -0.12062702 0 0 Z " fill="#EC6E70" transform="translate(250.5625,168.0625)"/>
<path d="M0 0 C0.144375 0.61875 0.28875 1.2375 0.4375 1.875 C0.93152225 4.03258322 0.93152225 4.03258322 2 6 C0.625 8 0.625 8 -1 10 C-1.66 10 -2.32 10 -3 10 C-4.32 12.31 -5.64 14.62 -7 17 C-7.66 17 -8.32 17 -9 17 C-7.51481201 12.95698825 -5.57122002 9.38853744 -3.375 5.6875 C-2.74335937 4.61886719 -2.11171875 3.55023438 -1.4609375 2.44921875 C-0.97882813 1.64097656 -0.49671875 0.83273437 0 0 Z " fill="#EB7275" transform="translate(116,301)"/>
<path d="M0 0 C2 3 2 3 2 7 C1.01 7 0.02 7 -1 7 C-1.66 8.98 -2.32 10.96 -3 13 C-3.99 13 -4.98 13 -6 13 C-6 13.99 -6 14.98 -6 16 C-6.99 16.33 -7.98 16.66 -9 17 C-7.51481201 12.95698825 -5.57122002 9.38853744 -3.375 5.6875 C-2.74335938 4.61886719 -2.11171875 3.55023438 -1.4609375 2.44921875 C-0.97882813 1.64097656 -0.49671875 0.83273437 0 0 Z " fill="#EA6F74" transform="translate(202,271)"/>
<path d="M0 0 C0.99 0 1.98 0 3 0 C6.28571429 7.42857143 6.28571429 7.42857143 7 11 C7.66 11 8.32 11 9 11 C9 11.99 9 12.98 9 14 C9.99 13.67 10.98 13.34 12 13 C12.66 14.32 13.32 15.64 14 17 C12.68 17.33 11.36 17.66 10 18 C8.32982236 15.18957076 6.66445191 12.37632343 5 9.5625 C4.28457031 8.35883789 4.28457031 8.35883789 3.5546875 7.13085938 C2.87792969 5.98520508 2.87792969 5.98520508 2.1875 4.81640625 C1.76855469 4.10943604 1.34960938 3.40246582 0.91796875 2.67407227 C0 1 0 1 0 0 Z " fill="#E17577" transform="translate(386,357)"/>
<path d="M0 0 C3.25048942 3.84348411 5.78782869 7.82398529 8.25 12.1875 C8.61351562 12.81591797 8.97703125 13.44433594 9.3515625 14.09179688 C12 18.74647556 12 18.74647556 12 21 C8.125 19.125 8.125 19.125 7 18 C6.95936168 16.33382885 6.957279 14.66611905 7 13 C6.34 13 5.68 13 5 13 C5 12.01 5 11.02 5 10 C4.34 10 3.68 10 3 10 C2.566875 8.2984375 2.566875 8.2984375 2.125 6.5625 C1.75375 5.386875 1.3825 4.21125 1 3 C0.34 2.67 -0.32 2.34 -1 2 C-0.67 1.34 -0.34 0.68 0 0 Z " fill="#E26F71" transform="translate(326,321)"/>
<path d="M0 0 C0.33 0 0.66 0 1 0 C1.3636198 4.24223102 0.5393228 6.58168085 -2 10 C-2.66 10 -3.32 10 -4 10 C-4 12.31 -4 14.62 -4 17 C-5.65 17.33 -7.3 17.66 -9 18 C-7.6510689 13.48548686 -5.83381706 9.67722719 -3.4375 5.625 C-2.81746094 4.56539062 -2.19742188 3.50578125 -1.55859375 2.4140625 C-0.78708984 1.21910156 -0.78708984 1.21910156 0 0 Z " fill="#E67376" transform="translate(153,236)"/>
<path d="M0 0 C4.06124391 1.35374797 4.60315649 3.26258828 6.6875 6.9375 C7.31011719 8.01902344 7.93273437 9.10054687 8.57421875 10.21484375 C10 13 10 13 10 15 C6.30653074 13.76884358 6.13909926 12.87119351 4.4375 9.5 C2.88380682 6.09741461 2.88380682 6.09741461 0 4 C0 2.68 0 1.36 0 0 Z " fill="#E87278" transform="translate(268,198)"/>
<path d="M0 0 C1.125 3.75 1.125 3.75 0 6 C-0.66 6 -1.32 6 -2 6 C-2.04125 6.886875 -2.0825 7.77375 -2.125 8.6875 C-3.32128554 13.21629527 -5.26271887 14.29643492 -9 17 C-7.57997238 13.24069983 -5.87350167 9.77000304 -3.9375 6.25 C-3.14666016 4.80367187 -3.14666016 4.80367187 -2.33984375 3.328125 C-1 1 -1 1 0 0 Z " fill="#E87376" transform="translate(198,159)"/>
<path d="M0 0 C2 3 2 3 1.875 6.3125 C0.91117265 10.37434381 -0.33420594 12.80104713 -3 16 C-5.25 16.875 -5.25 16.875 -7 17 C-6.67 16.34 -6.34 15.68 -6 15 C-5.34 15 -4.68 15 -4 15 C-4 14.01 -4 13.02 -4 12 C-4.66 11.34 -5.32 10.68 -6 10 C-4.02 9.67 -2.04 9.34 0 9 C0 6.03 0 3.06 0 0 Z " fill="#E97274" transform="translate(441,400)"/>
<path d="M0 0 C0.33 1.32 0.66 2.64 1 4 C0.34 4 -0.32 4 -1 4 C-0.690625 4.680625 -0.38125 5.36125 -0.0625 6.0625 C0 9 0 9 -1.4921875 10.890625 C-3.2804968 12.65738841 -5.09924927 14.35521072 -7 16 C-7.33 15.34 -7.66 14.68 -8 14 C-6.75717988 11.54961707 -5.47117661 9.226675 -4.0625 6.875 C-3.48338867 5.88693359 -3.48338867 5.88693359 -2.89257812 4.87890625 C-1.93553422 3.248387 -0.96867185 1.62363816 0 0 Z " fill="#EB7176" transform="translate(192,288)"/>
<path d="M0 0 C0.5534764 2.07553648 1 3.84365964 1 6 C0.01 6 -0.98 6 -2 6 C-1.87625 6.721875 -1.7525 7.44375 -1.625 8.1875 C-2.06001831 11.45013736 -2.55561151 11.8041996 -5 13.8125 C-5.99 14.534375 -6.98 15.25625 -8 16 C-6.57250019 12.20950293 -4.83763458 8.72877544 -2.875 5.1875 C-2.33617187 4.21167969 -1.79734375 3.23585938 -1.2421875 2.23046875 C-0.83226562 1.49441406 -0.42234375 0.75835937 0 0 Z " fill="#E87375" transform="translate(173,321)"/>
<path d="M0 0 C2.64934011 2.64934011 4.32794935 4.89484856 6.25 8.0625 C7.06210937 9.37927734 7.06210937 9.37927734 7.890625 10.72265625 C8.25671875 11.47417969 8.6228125 12.22570312 9 13 C8.67 13.66 8.34 14.32 8 15 C5.24616077 13.62308038 4.48516899 11.63279958 3 9 C2.01 9.495 2.01 9.495 1 10 C0.67 6.7 0.34 3.4 0 0 Z " fill="#E86D71" transform="translate(305,285)"/>
<path d="M0 0 C0.33 0 0.66 0 1 0 C1.46557346 3.18141867 1.50963377 5.25343123 -0.3359375 7.95703125 C-1.84258024 9.6935608 -3.37936464 11.369718 -5 13 C-5.66 12.67 -6.32 12.34 -7 12 C-5.85865673 9.99743426 -4.71181367 7.99800203 -3.5625 6 C-2.92441406 4.88625 -2.28632813 3.7725 -1.62890625 2.625 C-1.09136719 1.75875 -0.55382812 0.8925 0 0 Z " fill="#E87476" transform="translate(228,201)"/>
<path d="M0 0 C0.33 0.66 0.66 1.32 1 2 C-0.1796875 4.4609375 -0.1796875 4.4609375 -1.875 7.375 C-3.72876705 10.57382593 -5.32441708 13.34492317 -6 17 C-6.99 17 -7.98 17 -9 17 C-7.57997238 13.24069983 -5.87350167 9.77000304 -3.9375 6.25 C-3.14666016 4.80367188 -3.14666016 4.80367188 -2.33984375 3.328125 C-1 1 -1 1 0 0 Z " fill="#E37279" transform="translate(79,365)"/>
<path d="M0 0 C3.28465896 2.79196011 5.01321958 6.23196817 7 10 C7 10.66 7 11.32 7 12 C5.35 11.67 3.7 11.34 2 11 C2 10.01 2 9.02 2 8 C1.34561559 5.99594773 0.67939174 3.99571323 0 2 C0 1.34 0 0.68 0 0 Z " fill="#E97373" transform="translate(344,232)"/>
<path d="M0 0 C0.33 1.32 0.66 2.64 1 4 C1.66 4.33 2.32 4.66 3 5 C2.67 5.66 2.34 6.32 2 7 C1.01 7 0.02 7 -1 7 C-1 7.66 -1 8.32 -1 9 C-2.32 9.33 -3.64 9.66 -5 10 C-3.35 6.7 -1.7 3.4 0 0 Z " fill="#EB7073" transform="translate(92,342)"/>
<path d="M0 0 C0 4.09459203 -1.96927276 6.76750835 -4 10.1875 C-4.57234375 11.16879883 -4.57234375 11.16879883 -5.15625 12.16992188 C-6.09838932 13.78333545 -7.04844266 15.39212298 -8 17 C-8.33 16.34 -8.66 15.68 -9 15 C-8.0390625 13.01171875 -8.0390625 13.01171875 -6.625 10.6875 C-4.64931684 7.43700451 -3.57401308 4.77113245 -3 1 C-2.01 0.67 -1.02 0.34 0 0 Z " fill="#DF7677" transform="translate(166,266)"/>
<path d="M0 0 C2.0245738 1.93254772 3.42105792 3.63158688 5 6 C5 6.99 5 7.98 5 9 C3.35 9 1.7 9 0 9 C-1.10844919 5.67465243 -0.84454356 3.37817425 0 0 Z " fill="#F1766D" transform="translate(436,391)"/>
<path d="M0 0 C0.33 0.66 0.66 1.32 1 2 C0.29296875 4.05859375 0.29296875 4.05859375 -0.8125 6.4375 C-1.16957031 7.21996094 -1.52664062 8.00242187 -1.89453125 8.80859375 C-3 11 -3 11 -5 14 C-5.66 14 -6.32 14 -7 14 C-5.53967505 8.68972746 -3.01679014 4.53669968 0 0 Z " fill="#E37075" transform="translate(106,318)"/>
<path d="M0 0 C0.99 0 1.98 0 3 0 C3.18175781 0.84884766 3.18175781 0.84884766 3.3671875 1.71484375 C3.53476562 2.44832031 3.70234375 3.18179688 3.875 3.9375 C4.03742188 4.66839844 4.19984375 5.39929688 4.3671875 6.15234375 C4.82961523 8.20700294 4.82961523 8.20700294 7 9 C8.1875 10.875 8.1875 10.875 9 13 C8.67 13.99 8.34 14.98 8 16 C6.66141476 13.71125827 5.32898986 11.41930344 4 9.125 C3.6184375 8.47402344 3.236875 7.82304687 2.84375 7.15234375 C0 2.2265625 0 2.2265625 0 0 Z " fill="#E47276" transform="translate(274,162)"/>
<path d="M0 0 C0 3.72207387 -1.17964568 5.46395589 -3 8.6875 C-3.8353125 10.17830078 -3.8353125 10.17830078 -4.6875 11.69921875 C-5.3371875 12.83810547 -5.3371875 12.83810547 -6 14 C-6.33 14 -6.66 14 -7 14 C-6.67 11.69 -6.34 9.38 -6 7 C-5.01 6.67 -4.02 6.34 -3 6 C-1.84478498 3.52869082 -1.84478498 3.52869082 -1 1 C-0.67 0.67 -0.34 0.34 0 0 Z " fill="#E67479" transform="translate(114,356)"/>
<path d="M0 0 C3.28465896 2.79196011 5.01321958 6.23196817 7 10 C7 10.66 7 11.32 7 12 C6.34 12 5.68 12 5 12 C4.67 11.34 4.34 10.68 4 10 C3.01 10 2.02 10 1 10 C1.020625 9.0925 1.04125 8.185 1.0625 7.25 C1.0110245 4.57327412 0.7784983 2.53011948 0 0 Z " fill="#E46F71" transform="translate(402,332)"/>
<path d="M0 0 C0.68359375 1.734375 0.68359375 1.734375 1 4 C-0.21484375 6.140625 -0.21484375 6.140625 -1.9375 8.25 C-2.50339844 8.95640625 -3.06929687 9.6628125 -3.65234375 10.390625 C-4.31943359 11.18726563 -4.31943359 11.18726563 -5 12 C-5.33 11.01 -5.66 10.02 -6 9 C-4.78515625 6.73828125 -4.78515625 6.73828125 -3.0625 4.3125 C-2.49660156 3.50425781 -1.93070313 2.69601563 -1.34765625 1.86328125 C-0.90292969 1.24839844 -0.45820313 0.63351563 0 0 Z " fill="#E87275" transform="translate(212,135)"/>
<path d="M0 0 C0.66 0 1.32 0 2 0 C2 0.66 2 1.32 2 2 C3.65 2 5.3 2 7 2 C6.67 2.66 6.34 3.32 6 4 C6.33 4.99 6.66 5.98 7 7 C6.34 7.66 5.68 8.32 5 9 C4.16396622 7.68921847 3.3312426 6.37632511 2.5 5.0625 C2.0359375 4.33160156 1.571875 3.60070312 1.09375 2.84765625 C0 1 0 1 0 0 Z " fill="#E97374" transform="translate(397,376)"/>
<path d="M0 0 C1.32 0.33 2.64 0.66 4 1 C1.525 5.455 1.525 5.455 -1 10 C-2.10191901 5.59232396 -1.58706842 4.1077065 0 0 Z " fill="#EA7474" transform="translate(125,332)"/>
<path d="M0 0 C2.76544722 3.45680903 4.84921278 7.14341602 7 11 C4 11 4 11 1.8125 8.875 C-0.2619932 5.58442458 -0.35475877 3.81365679 0 0 Z " fill="#E67376" transform="translate(330,207)"/>
<path d="M0 0 C3.28465896 2.79196011 5.01321958 6.23196817 7 10 C7 10.66 7 11.32 7 12 C6.34 12 5.68 12 5 12 C4.67 10.68 4.34 9.36 4 8 C3.01 8 2.02 8 1 8 C0.67 5.36 0.34 2.72 0 0 Z " fill="#E77475" transform="translate(306,166)"/>
<path d="M0 0 C0.33 0.66 0.66 1.32 1 2 C0.00390625 4.3828125 0.00390625 4.3828125 -1.4375 7.125 C-1.91058594 8.03507812 -2.38367188 8.94515625 -2.87109375 9.8828125 C-3.24363281 10.58148438 -3.61617188 11.28015625 -4 12 C-4.66 12 -5.32 12 -6 12 C-4.68139111 7.38486888 -2.78644563 3.90102388 0 0 Z " fill="#E27074" transform="translate(127,282)"/>
<path d="M0 0 C2.72426311 2.35277269 3.8141763 4.62496331 5 8 C4.01 8.495 4.01 8.495 3 9 C3 8.01 3 7.02 3 6 C1.68 5.67 0.36 5.34 -1 5 C-0.67 3.35 -0.34 1.7 0 0 Z " fill="#EB7071" transform="translate(269,102)"/>
<path d="M0 0 C0.66 0 1.32 0 2 0 C3.32421875 1.609375 3.32421875 1.609375 4.6875 3.75 C5.14511719 4.44609375 5.60273438 5.1421875 6.07421875 5.859375 C7.16906025 8.39090725 6.9435441 9.46100862 6 12 C4.99747693 10.18889433 3.99804504 8.37607722 3 6.5625 C2.443125 5.55316406 1.88625 4.54382813 1.3125 3.50390625 C0 1 0 1 0 0 Z " fill="#DF7277" transform="translate(361,313)"/>
<path d="M0 0 C0.33 0.66 0.66 1.32 1 2 C0.22265625 3.7265625 0.22265625 3.7265625 -0.9375 5.625 C-1.618125 6.73875 -2.29875 7.8525 -3 9 C-4.4606285 6.35261084 -5 5.10551666 -5 2 C-4.360625 1.855625 -3.72125 1.71125 -3.0625 1.5625 C-1.02454854 1.18992819 -1.02454854 1.18992819 0 0 Z " fill="#E97275" transform="translate(153,288)"/>
<path d="M0 0 C0.99 0.66 1.98 1.32 3 2 C2.67 2.66 2.34 3.32 2 4 C1.01 4 0.02 4 -1 4 C-1.33 5.65 -1.66 7.3 -2 9 C-2.66 9 -3.32 9 -4 9 C-2.94124926 5.59687262 -1.99097846 2.98646769 0 0 Z " fill="#EA7275" transform="translate(132,273)"/>
<path d="M0 0 C0.99 0 1.98 0 3 0 C3.53229326 1.26607607 4.05044544 2.53810412 4.5625 3.8125 C4.85253906 4.52019531 5.14257812 5.22789062 5.44140625 5.95703125 C6 8 6 8 5 11 C4.16151196 9.54462432 3.32936066 8.08559627 2.5 6.625 C1.80390625 5.40683594 1.80390625 5.40683594 1.09375 4.1640625 C0 2 0 2 0 0 Z " fill="#E57275" transform="translate(337,271)"/>
<path d="M0 0 C0.66 0.33 1.32 0.66 2 1 C-0.475 5.455 -0.475 5.455 -3 10 C-3.33 10 -3.66 10 -4 10 C-4 8.02 -4 6.04 -4 4 C-3.34 4 -2.68 4 -2 4 C-2 3.34 -2 2.68 -2 2 C-1.34 2 -0.68 2 0 2 C0 1.34 0 0.68 0 0 Z " fill="#E77478" transform="translate(201,204)"/>
<path d="M0 0 C4.875 2.625 4.875 2.625 6 6 C5.01 7.485 5.01 7.485 4 9 C0 2.25 0 2.25 0 0 Z " fill="#EB7376" transform="translate(255,129)"/>
<path d="M0 0 C1 4 1 4 -0.9375 7.25 C-1.618125 8.1575 -2.29875 9.065 -3 10 C-3.66 9.67 -4.32 9.34 -5 9 C-3.35 6.03 -1.7 3.06 0 0 Z " fill="#E27176" transform="translate(242,177)"/>
<path d="M0 0 C2.23960447 2.87949147 4.29864224 5.76742026 6 9 C5.67 9.66 5.34 10.32 5 11 C1.62668646 8.75112431 1.1641821 7.7612037 0 4 C0 2.68 0 1.36 0 0 Z " fill="#E87073" transform="translate(385,302)"/>
<path d="M0 0 C0.66 0.99 1.32 1.98 2 3 C1.1875 4.9375 1.1875 4.9375 0 7 C-0.99 7.33 -1.98 7.66 -3 8 C-2.37240135 5.07120629 -1.41377341 2.63904371 0 0 Z " fill="#E77275" transform="translate(216,127)"/>
<path d="M0 0 C0.99 1.32 1.98 2.64 3 4 C2.360625 4.268125 1.72125 4.53625 1.0625 4.8125 C-1.33131686 5.88667752 -1.33131686 5.88667752 -2 9 C-2.66 9 -3.32 9 -4 9 C-3.35455571 5.51460083 -1.89865603 2.97180943 0 0 Z " fill="#E87375" transform="translate(155,353)"/>
<path d="M0 0 C2.72426311 2.35277269 3.8141763 4.62496331 5 8 C1.125 6.125 1.125 6.125 0 5 C-0.04063832 3.33382885 -0.042721 1.66611905 0 0 Z " fill="#EA7574" transform="translate(333,334)"/>
<path d="M0 0 C0.33 0.66 0.66 1.32 1 2 C0.00390625 3.9453125 0.00390625 3.9453125 -1.4375 6.125 C-1.91058594 6.84945312 -2.38367188 7.57390625 -2.87109375 8.3203125 C-3.24363281 8.87460938 -3.61617187 9.42890625 -4 10 C-4.33 9.34 -4.66 8.68 -5 8 C-4.0625 5.375 -4.0625 5.375 -3 3 C-2.34 3 -1.68 3 -1 3 C-0.67 2.01 -0.34 1.02 0 0 Z " fill="#E66E71" transform="translate(182,238)"/>
<path d="M0 0 C4.42857143 5.14285714 4.42857143 5.14285714 5 9 C4.34 9 3.68 9 3 9 C3 8.01 3 7.02 3 6 C1.68 5.34 0.36 4.68 -1 4 C-0.67 2.68 -0.34 1.36 0 0 Z " fill="#E77375" transform="translate(316,183)"/>
<path d="M0 0 C4.42857143 5.14285714 4.42857143 5.14285714 5 9 C2 8 2 8 0 5 C-0.125 2.3125 -0.125 2.3125 0 0 Z " fill="#E17476" transform="translate(315,302)"/>
<path d="M0 0 C0.66 0 1.32 0 2 0 C2.33 1.98 2.66 3.96 3 6 C1.68 6.33 0.36 6.66 -1 7 C-1.04254356 5.00045254 -1.04080783 2.99958364 -1 1 C-0.67 0.67 -0.34 0.34 0 0 Z " fill="#FA6666" transform="translate(117,299)"/>
<path d="M0 0 C0.66 0 1.32 0 2 0 C2 0.66 2 1.32 2 2 C2.99 2.33 3.98 2.66 5 3 C5.33 3.99 5.66 4.98 6 6 C5.34 6.66 4.68 7.32 4 8 C0 2.25 0 2.25 0 0 Z " fill="#EA6C7F" transform="translate(351,296)"/>
<path d="M0 0 C1.875 0.1875 1.875 0.1875 4 1 C5.25 3.5625 5.25 3.5625 6 6 C5.01 6.66 4.02 7.32 3 8 C2 6 2 6 2 2 C1.34 1.34 0.68 0.68 0 0 Z " fill="#EE7071" transform="translate(290,263)"/>
<path d="M0 0 C-1.75 5.75 -1.75 5.75 -4 8 C-4 5.69 -4 3.38 -4 1 C-2 0 -2 0 0 0 Z " fill="#E97176" transform="translate(177,248)"/>
<path d="M0 0 C0.33 0.66 0.66 1.32 1 2 C-0.25 5.5625 -0.25 5.5625 -2 9 C-2.99 9.33 -3.98 9.66 -5 10 C-3.66511872 6.40608886 -2.03977277 3.24509304 0 0 Z " fill="#DE7174" transform="translate(188,176)"/>
<path d="M0 0 C0.99 0 1.98 0 3 0 C1.81323934 4.10801767 1.10551666 5.89448334 -2 9 C-1.34 6.03 -0.68 3.06 0 0 Z " fill="#E77276" transform="translate(229,153)"/>
<path d="M0 0 C0.99 0.99 1.98 1.98 3 3 C2.67 3.66 2.34 4.32 2 5 C0.68 4.67 -0.64 4.34 -2 4 C-2 3.01 -2 2.02 -2 1 C-1.34 0.67 -0.68 0.34 0 0 Z " fill="#F67979" transform="translate(397,370)"/>
<path d="M0 0 C4.42857143 5.14285714 4.42857143 5.14285714 5 9 C4.34 9 3.68 9 3 9 C2.67 7.35 2.34 5.7 2 4 C1.01 3.67 0.02 3.34 -1 3 C-0.67 2.01 -0.34 1.02 0 0 Z " fill="#E67372" transform="translate(410,346)"/>
<path d="M0 0 C0.66 0.33 1.32 0.66 2 1 C0.68 3.31 -0.64 5.62 -2 8 C-2.33 7.01 -2.66 6.02 -3 5 C-1.5625 2.3125 -1.5625 2.3125 0 0 Z " fill="#E57176" transform="translate(139,311)"/>
<path d="M0 0 C2.50037734 2.17424117 3.43628586 3.73045798 4 7 C1.525 6.01 1.525 6.01 -1 5 C-0.67 3.35 -0.34 1.7 0 0 Z " fill="#E67276" transform="translate(298,152)"/>
<path d="M0 0 C3.0916909 2.52956528 3.90931332 5.22454612 5 9 C3.0625 8.4375 3.0625 8.4375 1 7 C0.25 3.375 0.25 3.375 0 0 Z " fill="#E87377" transform="translate(293,143)"/>
<path d="M0 0 C2.72426311 2.35277269 3.8141763 4.62496331 5 8 C3.68 7.67 2.36 7.34 1 7 C0.67 4.69 0.34 2.38 0 0 Z " fill="#E57377" transform="translate(284,128)"/>
</svg>
