<?xml version="1.0" encoding="UTF-8"?>
<svg version="1.1" xmlns="http://www.w3.org/2000/svg" width="500" height="500">
<path d="M0 0 C165 0 330 0 500 0 C500 165 500 330 500 500 C335 500 170 500 0 500 C0 335 0 170 0 0 Z " fill="#B2F9A0" transform="translate(0,0)"/>
<path d="M0 0 C3.03811971 2.28462738 4.37710154 4.48207628 6.26953125 7.78515625 C6.82314331 8.73950562 6.82314331 8.73950562 7.38793945 9.71313477 C8.75757964 12.08390574 10.10686806 14.46573969 11.45703125 16.84765625 C12.67243278 18.97308204 13.88863687 21.09804902 15.10546875 23.22265625 C17.15229108 26.79956133 19.19776256 30.37719128 21.23730469 33.95825195 C25.62180957 41.65513037 30.04625963 49.32688324 34.51953125 56.97265625 C41.2491973 68.4763344 47.91358895 80.01689048 54.56591797 91.56542969 C57.69383271 96.99425563 60.82556856 102.42087632 63.95703125 107.84765625 C67.72067044 114.369989 71.48347747 120.89279387 75.2421875 127.41796875 C81.26450454 137.86971824 87.30372462 148.31065173 93.39453125 158.72265625 C98.81525142 167.99095858 104.15762808 177.30229988 109.47323608 186.631073 C114.73869252 195.86975306 120.06836066 205.0691794 125.44042969 214.24633789 C129.23622945 220.73672044 132.98690048 227.25113413 136.70703125 233.78515625 C140.18565212 239.89411961 143.69200911 245.98355649 147.26953125 252.03515625 C151.64996617 259.44547525 155.96656796 266.89216698 160.26953125 274.34765625 C160.90415283 275.4461792 161.53877441 276.54470215 162.19262695 277.67651367 C164.90412869 282.37924649 167.60021942 287.08637575 170.21484375 291.84375 C171.85147144 294.80667417 173.57174838 297.63768537 175.51953125 300.41015625 C178.23233828 304.39916813 180.40449835 308.49068868 182.45703125 312.84765625 C182.81539063 313.50378906 183.17375 314.15992188 183.54296875 314.8359375 C185.0305801 318.10995392 185.00573254 321.36139563 184.45703125 324.84765625 C181.63587256 330.38921796 181.63587256 330.38921796 178.20703125 331.72265625 C177.34078125 331.78453125 177.34078125 331.78453125 176.45703125 331.84765625 C176.45703125 332.50765625 176.45703125 333.16765625 176.45703125 333.84765625 C130.07736178 333.93918266 83.69770186 334.00968018 37.3179599 334.05191757 C31.84421596 334.05692048 26.37047219 334.06209776 20.89672852 334.06738281 C19.8069903 334.06843205 18.71725208 334.0694813 17.59449149 334.07056233 C-0.05765768 334.08797446 -17.70975481 334.11951661 -35.3618731 334.15626743 C-53.47035237 334.19365435 -71.57880436 334.21588735 -89.68732065 334.22401023 C-100.86407434 334.22950266 -112.04068097 334.24685912 -123.2173894 334.27932212 C-130.87842029 334.30044223 -138.539375 334.30686197 -146.2004329 334.30166176 C-150.62255789 334.29909609 -155.04442563 334.30306923 -159.46650505 334.32447815 C-163.51511672 334.34393601 -167.56329804 334.34493139 -171.61192947 334.33125183 C-173.07638676 334.32956101 -174.54087086 334.33464191 -176.00527538 334.34718898 C-189.73646085 334.4579953 -189.73646085 334.4579953 -195.54296875 329.84765625 C-198.57388843 325.44793413 -198.90185456 322.10862781 -198.54296875 316.84765625 C-197.328125 313.92700195 -197.328125 313.92700195 -195.60546875 311.0234375 C-194.64616455 309.37843262 -194.64616455 309.37843262 -193.66748047 307.70019531 C-192.95945992 306.52009227 -192.25128513 305.34008175 -191.54296875 304.16015625 C-190.81367658 302.91987908 -190.08600245 301.67864921 -189.35986328 300.43652344 C-187.84925006 297.8552056 -186.33175019 295.27812565 -184.80957031 292.70361328 C-181.61529009 287.28708453 -178.51686585 281.81640444 -175.41259766 276.34799194 C-169.62557781 266.16406572 -163.75009901 256.03278656 -157.83154297 245.92480469 C-153.00536817 237.67047574 -148.26003969 229.37127869 -143.52648926 221.06369019 C-138.25738164 211.81864275 -132.9230042 202.61347786 -127.54858398 193.42919922 C-123.86563254 187.13011847 -120.21849792 180.81208908 -116.60546875 174.47265625 C-107.36197483 158.25399149 -98.0307434 142.08635921 -88.60546875 125.97265625 C-83.18342492 116.70199129 -77.83972891 107.38828975 -72.5227356 98.05718994 C-67.34918088 88.97986989 -62.11154721 79.94194092 -56.83203125 70.92578125 C-52.35130388 63.26191271 -47.93825753 55.56066894 -43.54296875 47.84765625 C-38.35243536 38.74174363 -33.13258164 29.65379022 -27.85546875 20.59765625 C-27.29150391 19.62828125 -26.72753906 18.65890625 -26.14648438 17.66015625 C-12.51901146 -5.67297754 -12.51901146 -5.67297754 0 0 Z " fill="#B3F89F" transform="translate(257.54296875,84.15234375)"/>
<path d="M0 0 C3.03811971 2.28462738 4.37710154 4.48207628 6.26953125 7.78515625 C6.82314331 8.73950562 6.82314331 8.73950562 7.38793945 9.71313477 C8.75757964 12.08390574 10.10686806 14.46573969 11.45703125 16.84765625 C12.67243278 18.97308204 13.88863687 21.09804902 15.10546875 23.22265625 C17.15229108 26.79956133 19.19776256 30.37719128 21.23730469 33.95825195 C25.62180957 41.65513037 30.04625963 49.32688324 34.51953125 56.97265625 C41.2491973 68.4763344 47.91358895 80.01689048 54.56591797 91.56542969 C57.69383271 96.99425563 60.82556856 102.42087632 63.95703125 107.84765625 C67.72067044 114.369989 71.48347747 120.89279387 75.2421875 127.41796875 C81.26450454 137.86971824 87.30372462 148.31065173 93.39453125 158.72265625 C98.81525142 167.99095858 104.15762808 177.30229988 109.47323608 186.631073 C114.73869252 195.86975306 120.06836066 205.0691794 125.44042969 214.24633789 C129.23622945 220.73672044 132.98690048 227.25113413 136.70703125 233.78515625 C140.18565212 239.89411961 143.69200911 245.98355649 147.26953125 252.03515625 C151.64996617 259.44547525 155.96656796 266.89216698 160.26953125 274.34765625 C160.90415283 275.4461792 161.53877441 276.54470215 162.19262695 277.67651367 C164.90412869 282.37924649 167.60021942 287.08637575 170.21484375 291.84375 C171.85147144 294.80667417 173.57174838 297.63768537 175.51953125 300.41015625 C178.23233828 304.39916813 180.40449835 308.49068868 182.45703125 312.84765625 C182.81539063 313.50378906 183.17375 314.15992188 183.54296875 314.8359375 C185.0305801 318.10995392 185.00573254 321.36139563 184.45703125 324.84765625 C181.63587256 330.38921796 181.63587256 330.38921796 178.20703125 331.72265625 C177.34078125 331.78453125 177.34078125 331.78453125 176.45703125 331.84765625 C176.45703125 332.50765625 176.45703125 333.16765625 176.45703125 333.84765625 C130.07736178 333.93918266 83.69770186 334.00968018 37.3179599 334.05191757 C31.84421596 334.05692048 26.37047219 334.06209776 20.89672852 334.06738281 C19.8069903 334.06843205 18.71725208 334.0694813 17.59449149 334.07056233 C-0.05765768 334.08797446 -17.70975481 334.11951661 -35.3618731 334.15626743 C-53.47035237 334.19365435 -71.57880436 334.21588735 -89.68732065 334.22401023 C-100.86407434 334.22950266 -112.04068097 334.24685912 -123.2173894 334.27932212 C-130.87842029 334.30044223 -138.539375 334.30686197 -146.2004329 334.30166176 C-150.62255789 334.29909609 -155.04442563 334.30306923 -159.46650505 334.32447815 C-163.51511672 334.34393601 -167.56329804 334.34493139 -171.61192947 334.33125183 C-173.07638676 334.32956101 -174.54087086 334.33464191 -176.00527538 334.34718898 C-189.73646085 334.4579953 -189.73646085 334.4579953 -195.54296875 329.84765625 C-198.57388843 325.44793413 -198.90185456 322.10862781 -198.54296875 316.84765625 C-197.328125 313.92700195 -197.328125 313.92700195 -195.60546875 311.0234375 C-194.64616455 309.37843262 -194.64616455 309.37843262 -193.66748047 307.70019531 C-192.95945992 306.52009227 -192.25128513 305.34008175 -191.54296875 304.16015625 C-190.81367658 302.91987908 -190.08600245 301.67864921 -189.35986328 300.43652344 C-187.84925006 297.8552056 -186.33175019 295.27812565 -184.80957031 292.70361328 C-181.61529009 287.28708453 -178.51686585 281.81640444 -175.41259766 276.34799194 C-169.62557781 266.16406572 -163.75009901 256.03278656 -157.83154297 245.92480469 C-153.00536817 237.67047574 -148.26003969 229.37127869 -143.52648926 221.06369019 C-138.25738164 211.81864275 -132.9230042 202.61347786 -127.54858398 193.42919922 C-123.86563254 187.13011847 -120.21849792 180.81208908 -116.60546875 174.47265625 C-107.36197483 158.25399149 -98.0307434 142.08635921 -88.60546875 125.97265625 C-83.18342492 116.70199129 -77.83972891 107.38828975 -72.5227356 98.05718994 C-67.34918088 88.97986989 -62.11154721 79.94194092 -56.83203125 70.92578125 C-52.35130388 63.26191271 -47.93825753 55.56066894 -43.54296875 47.84765625 C-38.35243536 38.74174363 -33.13258164 29.65379022 -27.85546875 20.59765625 C-27.29150391 19.62828125 -26.72753906 18.65890625 -26.14648438 17.66015625 C-12.51901146 -5.67297754 -12.51901146 -5.67297754 0 0 Z M-7.54296875 36.84765625 C-8.45112462 38.24291214 -9.30584181 39.67292605 -10.140625 41.11328125 C-10.68654297 42.05171875 -11.23246094 42.99015625 -11.79492188 43.95703125 C-12.69114258 45.51164062 -12.69114258 45.51164062 -13.60546875 47.09765625 C-14.22744141 48.17015625 -14.84941406 49.24265625 -15.49023438 50.34765625 C-20.89369919 59.68140244 -26.23812599 69.04893047 -31.57836914 78.41894531 C-36.41539845 86.90149428 -41.31972766 95.3431258 -46.25390625 103.76953125 C-50.73463021 111.43339395 -55.14803627 119.1344446 -59.54296875 126.84765625 C-65.0556071 136.52246844 -70.62721442 146.16047762 -76.25390625 155.76953125 C-80.7346314 163.43339599 -85.14791099 171.1345146 -89.54296875 178.84765625 C-95.08282808 188.56890131 -100.67671807 198.25660493 -106.32641602 207.91455078 C-112.48063617 218.4385025 -118.56666871 229.00145762 -124.65185547 239.56542969 C-127.77977022 244.99425565 -130.91152921 250.42086294 -134.04296875 255.84765625 C-137.54941358 261.92481789 -141.05571576 268.00206098 -144.55993652 274.08050537 C-145.56915979 275.83106866 -146.57850711 277.58156036 -147.58789062 279.33203125 C-148.84464535 281.5115779 -150.10117461 283.69125457 -151.35742188 285.87109375 C-152.22270508 287.3715625 -152.22270508 287.3715625 -153.10546875 288.90234375 C-153.66492188 289.87268555 -154.224375 290.84302734 -154.80078125 291.84277344 C-157.26437185 296.09191485 -159.75940887 300.32251547 -162.2578125 304.55126953 C-163.62436309 306.55450556 -163.62436309 306.55450556 -163.54296875 307.84765625 C-60.58296875 307.84765625 42.37703125 307.84765625 148.45703125 307.84765625 C146.98270266 303.42467049 145.75362892 300.32175409 143.47265625 296.41796875 C142.5753479 294.87290649 142.5753479 294.87290649 141.65991211 293.29663086 C141.01546143 292.19971924 140.37101074 291.10280762 139.70703125 289.97265625 C139.03016016 288.81093118 138.35381775 287.64889793 137.67797852 286.48657227 C135.61137705 282.93612551 133.53503763 279.39143647 131.45703125 275.84765625 C129.10165019 271.82753239 126.74721935 267.80685675 124.39453125 263.78515625 C123.82259033 262.80836914 123.25064941 261.83158203 122.66137695 260.82519531 C118.48604638 253.67151317 114.42197155 246.46045583 110.39453125 239.22265625 C105.52874997 230.48044672 100.53959996 221.826306 95.42382812 213.22827148 C86.06497014 197.48824537 77.00360421 181.57324801 67.9362793 165.6640625 C64.23428252 159.18017928 60.47791581 152.72917312 56.70703125 146.28515625 C51.22451368 136.91592125 45.81964609 127.50434808 40.44567871 118.07266235 C35.08218789 108.66189965 29.65346763 99.29079421 24.18359375 89.94140625 C20.63701768 83.87790523 17.13228937 77.79392542 13.66015625 71.6875 C9.94817345 65.1915301 6.15496582 58.74204006 2.37890625 52.28320312 C-0.62017988 47.1519542 -3.6067286 42.0151482 -6.54296875 36.84765625 C-6.87296875 36.84765625 -7.20296875 36.84765625 -7.54296875 36.84765625 Z " fill="#FD6F6D" transform="translate(257.54296875,84.15234375)"/>
<path d="M0 0 C0.8098082 -0.01460266 1.61961639 -0.02920532 2.45396423 -0.04425049 C9.93491337 -0.1703617 17.41694014 -0.23901271 24.89873028 -0.29209328 C29.92806615 -0.32786317 34.9558035 -0.38117146 39.984375 -0.47753906 C44.84215559 -0.57036188 49.69852125 -0.61901421 54.55713844 -0.63648605 C56.40843773 -0.65058333 58.25968701 -0.68023068 60.11047935 -0.72578812 C74.57577583 -1.0644148 74.57577583 -1.0644148 78.64701843 2.10798645 C80.23570337 4.43946855 81.27189273 6.62469604 82.27075195 9.25634766 C83.21712524 10.83017212 83.21712524 10.83017212 84.18261719 12.43579102 C84.9977478 13.87643921 84.9977478 13.87643921 85.8293457 15.34619141 C86.45462158 16.44656738 87.07989746 17.54694336 87.72412109 18.68066406 C88.04704132 19.25246399 88.36996155 19.82426392 88.70266724 20.41339111 C90.0958265 22.88007491 91.49654326 25.3424405 92.89677429 27.80511475 C93.62150829 29.07985397 94.34588232 30.35479793 95.06990051 31.62994385 C98.6293659 37.89677006 102.22718368 44.14123189 105.83325195 50.38134766 C106.44015869 51.43169189 107.04706543 52.48203613 107.67236328 53.56420898 C108.9041546 55.69599873 110.13600703 57.82775317 111.36791992 59.95947266 C113.02616658 62.83257541 114.68148037 65.70732267 116.33476257 68.58328247 C117.35977268 70.36632584 118.3853748 72.14902743 119.41113281 73.93164062 C120.69563335 76.16438668 121.97906987 78.39774535 123.26123047 80.63183594 C126.1913453 85.72138752 129.1508706 90.74941466 132.41870117 95.63085938 C133.27075195 97.25634766 133.27075195 97.25634766 133.27075195 100.25634766 C67.93075195 100.25634766 2.59075195 100.25634766 -64.72924805 100.25634766 C-63.28099917 95.91160103 -62.14892211 92.9523522 -59.89331055 89.15869141 C-59.3300708 88.20365723 -58.76683105 87.24862305 -58.18652344 86.26464844 C-57.27954712 84.74460205 -57.27954712 84.74460205 -56.35424805 83.19384766 C-55.07349835 81.02374773 -53.79356399 78.85316643 -52.5144043 76.68212891 C-51.87390137 75.59754395 -51.23339844 74.51295898 -50.57348633 73.39550781 C-47.94008652 68.91308066 -45.36158369 64.40042583 -42.79174805 59.88134766 C-33.41410717 43.42674741 -23.97436848 27.00809748 -14.35424805 10.69384766 C-13.80067627 9.75355713 -13.24710449 8.8132666 -12.67675781 7.84448242 C-12.17072021 6.98910889 -11.66468262 6.13373535 -11.14331055 5.25244141 C-10.69938965 4.50148193 -10.25546875 3.75052246 -9.7980957 2.97680664 C-7.41824558 -0.85389319 -4.15726091 0.05674831 0 0 Z " fill="#FE6D6D" transform="translate(215.729248046875,262.74365234375)"/>
<path d="M0 0 C2.31640625 0.05859375 2.31640625 0.05859375 5 1 C6.57045121 3.02628794 7.72760286 4.83228158 8.9375 7.0625 C9.72519598 8.44274511 10.51296116 9.82295073 11.30078125 11.203125 C11.72955566 11.96818359 12.15833008 12.73324219 12.60009766 13.52148438 C14.64755879 17.14649753 16.76232666 20.73116669 18.87060547 24.32104492 C21.28098864 28.43104005 23.67242346 32.55195064 26.06494141 36.67236328 C27.7522522 39.5739588 29.44460215 42.47250583 31.13928223 45.36979675 C32.53040934 47.7503376 33.91725177 50.13335599 35.30316162 52.51693726 C36.29538827 54.22061867 37.2924287 55.92149359 38.28955078 57.62231445 C38.89138184 58.65960693 39.49321289 59.69689941 40.11328125 60.765625 C40.64735596 61.68118164 41.18143066 62.59673828 41.73168945 63.54003906 C42.87759757 65.76259348 43.73114258 67.51585186 44 70 C41.51545277 72.48454723 40.07561189 72.23886393 36.68536377 72.25994873 C35.94606628 72.25432922 35.2067688 72.24870972 34.44506836 72.24291992 C33.66609695 72.24481827 32.88712555 72.24671661 32.08454895 72.24867249 C29.50287904 72.25238529 26.92148877 72.24166985 24.33984375 72.23046875 C22.55147841 72.22927723 20.76311243 72.22882373 18.9747467 72.2290802 C15.22457977 72.22751452 11.47450819 72.21921773 7.72436523 72.20581055 C2.9064245 72.18880833 -1.91141148 72.1849965 -6.7293787 72.18575573 C-10.42240914 72.18548442 -14.11541648 72.18000969 -17.80843925 72.17275429 C-19.58553327 72.16956222 -21.36262991 72.16759897 -23.13972664 72.16686058 C-25.6180179 72.16470338 -28.0961958 72.15597306 -30.57446289 72.14526367 C-31.31578461 72.14571686 -32.05710632 72.14617004 -32.82089233 72.14663696 C-37.8855251 72.1144749 -37.8855251 72.1144749 -39 71 C-38.61751426 66.00449293 -37.53650091 62.57586875 -34.9296875 58.32421875 C-34.28757324 57.26130615 -33.64545898 56.19839355 -32.98388672 55.10327148 C-32.28094686 53.96466717 -31.57798406 52.82607702 -30.875 51.6875 C-29.78504527 49.89257398 -28.69946072 48.09505174 -27.61404419 46.29737854 C-26.86754587 45.06158181 -26.11970852 43.82659301 -25.37057495 42.59239197 C-21.43482334 36.10014677 -17.64945732 29.52441976 -13.875 22.9375 C-1.69935287 1.69935287 -1.69935287 1.69935287 0 0 Z " fill="#FE6E6D" transform="translate(248,169)"/>
</svg>
